<?xml version="1.0" encoding="UTF-8" standalone="yes"?>
<!DOCTYPE svg PUBLIC "-//W3C//DTD SVG 1.1//EN" "http://www.w3.org/Graphics/SVG/1.1/DTD/svg11.dtd">

<svg width="500" height="500" viewBox="0 0 500 500" xmlns="http://www.w3.org/2000/svg" xmlns:xlink="http://www.w3.org/1999/xlink" version="1.1" baseProfile="full">
    <defs>
        <linearGradient id="105553240254544105553165681760" x1="88.674118%" x2="111.325882%" y1="1.299646%" y2="98.700356%">
            <stop offset="0%" style="stop-color:#1b00ff;stop-opacity:1.000000"></stop>
            <stop offset="100%" style="stop-color:#98c4ff;stop-opacity:1.000000"></stop>
        </linearGradient>
        <linearGradient id="105553240257584105553165694976" x1="88.674118%" x2="111.325882%" y1="1.299646%" y2="98.700356%">
            <stop offset="0%" style="stop-color:#051221;stop-opacity:1.000000"></stop>
            <stop offset="100%" style="stop-color:#a6fc78;stop-opacity:1.000000"></stop>
        </linearGradient>
    </defs>
    <g transform="scale(1,-1) translate(0,-500)">
        <rect width="500" height="500" style="fill:rgb(255,254,254)"></rect>
        <path d="M 2.855786 28.993589 C 14.355786 35.416208 -1.894214 24.922159 31.355786 47.136444 C 43.770956 57.565018 46.970163 47.275286 43.274818 42.068557 C 32.661799 22.443534 31.642124 4.736906 28.017663 1.033766 C 21.176086 29.438464 -3.467542 24.519883 2.855786 28.993589 Z" transform="scale(1.000000,1.000000) translate(430.000000,427.000000)" fill="#0b0f14" opacity="1.000000"></path>
        <path d="M 43.226560 29.353604 C 31.726560 35.776222 47.976560 25.282173 14.726560 47.496459 C 2.311390 57.925033 -0.887817 47.635301 2.807528 42.428572 C 13.420547 22.803549 14.440222 5.096921 18.064683 1.393781 C 24.906260 29.798479 49.549888 24.879898 43.226560 29.353604 Z" transform="scale(1.000000,1.000000) translate(23.000000,429.000000)" fill="#000000" opacity="1.000000"></path>
        <path d="M 6.388425 4.428557 C 6.388425 5.899878 5.195684 7.092618 3.724364 7.092618 C 2.253044 7.092618 1.060303 5.899878 1.060303 4.428557 C 1.060303 2.957237 2.253044 1.764496 3.724364 1.764496 C 5.195684 1.764496 6.388425 2.957237 6.388425 4.428557 Z" transform="scale(1.000000,1.000000) translate(464.000000,467.000000)" fill="#5972ff" opacity="0.600000"></path>
        <path d="M 5.778107 3.642853 C 5.778107 4.747422 4.882676 5.642853 3.778107 5.642853 C 2.673537 5.642853 1.778107 4.747422 1.778107 3.642853 C 1.778107 2.538283 2.673537 1.642853 3.778107 1.642853 C 4.882676 1.642853 5.778107 2.538283 5.778107 3.642853 Z" transform="scale(1.000000,1.000000) translate(459.000000,463.000000)" fill="#5972ff" opacity="0.400000"></path>
        <path d="M 3.340607 2.330353 C 3.340607 2.882638 2.892891 3.330353 2.340607 3.330353 C 1.788322 3.330353 1.340607 2.882638 1.340607 2.330353 C 1.340607 1.778068 1.788322 1.330353 2.340607 1.330353 C 2.892891 1.330353 3.340607 1.778068 3.340607 2.330353 Z" transform="scale(1.000000,1.000000) translate(456.000000,460.000000)" fill="#5972ff" opacity="0.400000"></path>
        <path d="M 3.833990 6.743101 C 2.362670 6.743101 1.169929 5.550361 1.169929 4.079040 C 1.169928 2.607720 2.362669 1.414979 3.833989 1.414979 C 5.305310 1.414978 6.498051 2.607719 6.498051 4.079039 C 6.498052 5.550360 5.305311 6.743101 3.833990 6.743101 Z" transform="scale(1.000000,1.000000) translate(28.000000,468.000000)" fill="#5972ff" opacity="0.600000"></path>
        <path d="M 3.619691 5.132782 C 2.515121 5.132783 1.619691 4.237352 1.619690 3.132783 C 1.619690 2.028213 2.515120 1.132783 3.619690 1.132782 C 4.724259 1.132782 5.619690 2.028212 5.619690 3.132782 C 5.619691 4.237351 4.724260 5.132782 3.619691 5.132782 Z" transform="scale(1.000000,1.000000) translate(33.000000,464.000000)" fill="#5972ff" opacity="0.400000"></path>
        <path d="M 2.932190 3.695282 C 2.379906 3.695282 1.932190 3.247567 1.932190 2.695282 C 1.932190 2.142998 2.379905 1.695282 2.932190 1.695282 C 3.484475 1.695282 3.932190 2.142997 3.932190 2.695282 C 3.932190 3.247567 3.484475 3.695282 2.932190 3.695282 Z" transform="scale(1.000000,1.000000) translate(38.000000,460.000000)" fill="#5972ff" opacity="0.400000"></path>
        <path d="M 36.816805 1.715832 L 402.265566 1.715832 C 421.595532 1.715832 437.265566 17.385866 437.265566 36.715832 L 437.265566 409.572979 C 437.265566 428.902945 421.595532 444.572979 402.265566 444.572979 L 36.816805 444.572979 C 17.486839 444.572979 1.816805 428.902945 1.816805 409.572979 L 1.816805 36.715832 C 1.816805 17.385866 17.486839 1.715832 36.816805 1.715832 Z" transform="scale(1.000000,1.000000) translate(30.000000,27.000000)" fill="#04173c" opacity="1.000000"></path>
        <path d="M 49.863666 1.860470 L 352.218701 1.860470 C 378.728371 1.860470 400.218704 23.350802 400.218704 49.860470 L 400.218704 374.572994 C 400.218704 401.082662 378.728371 422.572994 352.218701 422.572994 L 49.863666 422.572994 C 23.353996 422.572994 1.863663 401.082662 1.863663 374.572994 L 1.863663 49.860470 C 1.863663 23.350802 23.353996 1.860470 49.863666 1.860470 Z" transform="scale(1.000000,1.000000) translate(48.000000,38.000000)" fill="url(#105553240254544105553165681760)" opacity="0.199551"></path>
        <path d="M 36.863668 1.004887 L 354.218699 1.004887 C 373.548668 1.004887 389.218704 16.674920 389.218704 36.004887 L 389.218704 382.283909 C 389.218704 401.613875 373.548668 417.283909 354.218699 417.283909 L 36.863668 417.283909 C 17.533699 417.283909 1.863663 401.613875 1.863663 382.283909 L 1.863663 36.004887 C 1.863663 16.674920 17.533699 1.004887 36.863668 1.004887 Z" transform="scale(1.000000,1.000000) translate(54.000000,41.000000)" fill="url(#105553240257584105553165694976)" opacity="0.554503"></path>
        <path d="M 387.616696 193.305701 C 387.616696 299.247874 301.224173 385.130974 194.653595 385.130974 C 88.083017 385.130974 1.690493 299.247874 1.690493 193.305701 C 1.690493 87.363528 88.083017 1.480428 194.653595 1.480428 C 301.224173 1.480428 387.616696 87.363528 387.616696 193.305701 Z" transform="scale(1.000000,1.000000) translate(55.000000,57.000000)" fill="#f8e7e8" opacity="0.228474"></path>
        <path d="M 373.271622 187.144409 C 373.271622 289.720498 290.117272 372.874847 187.541183 372.874847 C 84.965095 372.874847 1.810745 289.720498 1.810745 187.144409 C 1.810745 84.568321 84.965095 1.413971 187.541183 1.413971 C 290.117272 1.413971 373.271622 84.568321 373.271622 187.144409 Z" transform="scale(1.000000,1.000000) translate(62.000000,63.000000)" fill="#f8de0a" opacity="1.000000"></path>
        <path d="M 1.979932 8.374324 L 160.183007 166.577400 L 167.254075 159.506332 L 9.050999 1.303257 L 1.979932 8.374324 Z" transform="scale(1.000000,1.000000) translate(279.000000,328.000000)" opacity="1.000000"></path>
        <path d="M 80.570540 1.054302 L 1.469001 178.241747 L 10.600380 182.318255 L 89.701919 5.130811 L 80.570540 1.054302 Z" transform="scale(1.000000,1.000000) translate(95.000000,312.000000)" opacity="1.000000"></path>
        <path d="M 9.483561 113.319798 L 90.905413 7.112802 L 82.969223 1.028652 L 1.547370 107.235647 L 9.483561 113.319798 Z" transform="scale(1.000000,1.000000) translate(279.000000,8.000000)" opacity="1.000000"></path>
        <path d="M 1.090330 7.189333 L 90.738743 121.517425 L 98.607968 115.346907 L 8.959555 1.018815 L 1.090330 7.189333 Z" transform="scale(1.000000,1.000000) translate(107.000000,18.000000)" opacity="1.000000"></path>
        <path d="M 42.471801 19.740111 Q 23.342818 7.341695 14.604893 2.854663 Q 7.874309 -0.687741 3.387268 5.216267 Q -0.981694 11.120276 2.796868 13.363791 Q 12.125203 19.031624 25.704422 29.776926 Q 38.929397 40.286052 43.888761 45.599659 Q 35.268924 56.108805 31.018031 59.651210 L 40.464445 66.736019 L 54.043664 70.632668 L 51.445903 62.485126 Q 53.099018 63.429770 62.073118 66.617931 L 61.010385 55.990716 L 58.884957 53.865270 L 69.157926 38.987161 Q 63.253918 33.319328 42.471801 19.740111 Z" transform="scale(1.000000,1.000000) translate(271.000000,103.000000)" fill="#612b01" opacity="1.000000"></path>
        <path d="M 187.762234 191.273215 Q 187.526057 155.849166 188.352631 139.199856 Q 168.042847 134.712825 138.995119 125.148326 Q 104.397627 113.694556 85.977132 103.539656 L 96.958589 87.598833 L 111.246277 68.469850 Q 90.818405 54.890632 81.608166 47.097335 L 103.334907 22.772831 L 79.010385 1.990716 L 80.073118 12.617931 Q 71.099018 9.429770 69.445903 8.485126 L 72.043664 16.632668 L 58.464445 12.736019 L 70.154374 22.654745 Q 59.054847 29.503399 42.759781 42.019904 L 68.028949 70.831455 L 38.390822 105.310861 L 1.195573 146.993164 Q 111.954774 218.431657 188.352637 238.859519 Q 187.880323 218.667809 187.762234 191.273215 Z" transform="scale(1.000000,1.000000) translate(253.000000,157.000000)" fill="#fedd09" opacity="1.000000"></path>
        <path d="M 4.464445 14.090263 L 17.807507 19.285783 L 19.224465 19.167695 L 19.460622 18.104981 L 16.980949 11.492485 L 25.364630 15.271064 Q 27.371989 15.979534 27.371989 14.208331 Q 27.253920 9.485125 25.718873 2.990716 L 23.357270 1.219514 L 24.538072 11.728659 Q 21.586068 11.020171 15.800147 8.540481 Q 13.556613 7.713923 14.147014 9.839370 L 16.154374 15.861465 Q 6.589891 12.909462 1.630528 11.138260 L 4.464445 14.090263 Z" transform="scale(1.000000,1.000000) translate(307.000000,156.000000)" fill="#612b01" opacity="1.000000"></path>
        <path d="M 30.298359 18.212424 L 1.368718 1.799290 Q 10.815131 7.821385 28.054843 21.754829 L 52.261278 42.536944 L 56.394083 36.987161 Q 47.538070 28.839638 30.298359 18.212424 Z" transform="scale(1.000000,1.000000) translate(284.000000,105.000000)" fill="#411a00" opacity="1.000000"></path>
        <path d="M 55.050474 21.676013 Q 26.002764 11.875357 1.087842 1.602388 Q 15.139393 11.166870 48.792240 26.871533 Q 85.751318 44.111233 104.644144 48.362116 L 105.116457 36.199856 Q 86.341718 32.185138 55.050474 21.676013 Z" transform="scale(1.000000,1.000000) translate(336.000000,260.000000)" fill="#f6b208" opacity="1.000000"></path>
        <path d="M 26.751869 30.617374 L 33.482434 22.351762 L 1.482719 1.687736 Q 20.139390 24.713366 26.751869 30.617374 Z" transform="scale(1.000000,1.000000) translate(331.000000,203.000000)" fill="#f6b208" opacity="1.000000"></path>
        <path d="M 23.862594 19.536674 L 13.707692 11.389132 L 1.191187 1.116163 L 1.899675 5.839369 Q 12.881135 22.370591 17.486255 27.093797 L 23.862594 19.536674 Z" transform="scale(1.000000,1.000000) translate(332.000000,160.000000)" fill="#f6b208" opacity="1.000000"></path>
        <path d="M 6.191187 5.116163 L 1.467980 1.573758 L 6.899675 9.839369 L 6.191187 5.116163 Z" transform="scale(1.000000,1.000000) translate(327.000000,156.000000)" fill="#411a00" opacity="1.000000"></path>
        <path d="M 193.360014 293.040321 Q 192.533438 281.704627 192.769611 243.328570 L 193.241921 191.019054 L 192.415346 189.956340 Q 167.028110 184.524646 137.508069 174.487834 Q 109.759230 164.923353 91.692979 155.831186 Q 99.250101 144.377395 116.489811 121.587937 Q 117.198281 120.761361 116.253636 120.170960 Q 97.596984 107.890632 87.323995 99.861178 L 108.342266 75.890900 Q 109.050755 75.182430 108.224197 74.473941 L 92.637600 61.603212 Q 84.490076 54.872647 82.246560 52.511043 L 92.047198 37.987161 L 91.929129 36.688308 Q 87.323991 32.083153 71.383169 21.810202 Q 54.497719 11.064901 36.667607 1.618489 L 34.542160 1.382314 Q 34.187916 2.090802 35.841049 3.035465 Q 78.467979 29.485412 87.796323 38.105249 L 78.231823 52.156800 Q 77.759510 52.865270 78.349911 53.455671 L 88.268638 63.020170 L 103.028659 75.772831 Q 89.803685 91.713654 82.246563 99.270777 Q 81.419987 100.097335 82.364632 100.687736 Q 96.652340 112.141525 111.176204 121.706006 Q 96.180010 141.779635 86.615528 156.185412 Q 85.907040 157.130057 86.969772 157.602388 Q 105.626424 167.048800 133.257194 176.967525 Q 163.839950 188.067051 188.991028 193.498745 Q 187.928315 209.557645 188.046404 242.738169 Q 188.164457 275.210218 189.109121 288.907515 Q 150.260736 278.280303 94.881145 250.295307 Q 43.162029 224.199596 8.210301 199.048519 Q 24.269200 181.808825 73.272464 124.185699 Q 73.862865 123.477211 73.272464 122.886810 L 60.401733 108.599122 L 48.593716 95.137973 Q 69.611970 79.315238 74.689420 76.127077 Q 75.752152 75.418588 74.807507 74.473943 L 55.442349 58.415053 Q 60.992131 52.865271 67.014208 44.717746 Q 67.604608 44.009258 67.014207 43.418857 Q 62.763332 38.341425 48.829869 27.950350 Q 35.132562 17.795486 24.859591 12.009529 L 22.970310 11.773391 Q 22.497988 12.363792 23.796868 13.308418 L 45.759777 29.721553 Q 58.512439 39.758366 62.527158 44.363521 Q 55.796593 53.101446 50.482985 57.706565 Q 49.656428 58.533123 50.601073 59.241611 L 70.084301 75.182432 Q 58.630529 82.739556 43.634335 93.839103 Q 42.807777 94.547573 43.516265 95.256061 L 68.313101 123.713368 L 34.896414 162.561755 L 2.306293 198.930450 Q 1.597813 199.757008 2.424371 200.465487 Q 37.848422 226.679277 94.172657 254.664278 Q 152.031939 283.475832 192.179213 294.103044 Q 193.596153 294.457284 193.360014 293.040321 Z" transform="scale(1.000000,1.000000) translate(250.000000,104.000000)" fill="#0b0f14" opacity="1.000000"></path>
        <path d="M 28.779446 43.907257 Q 21.576555 39.892532 16.144868 25.368673 Q 11.539740 13.088335 10.831259 1.516480 Q 5.399572 17.811541 2.447570 43.907258 Q -0.622513 70.593376 3.274133 71.656097 Q 7.052698 72.718818 14.845988 63.626645 Q 21.104236 56.305674 28.779446 43.907257 Z" transform="scale(1.000000,1.000000) translate(128.000000,381.000000)" fill="#0b0f14" opacity="1.000000"></path>
        <path d="M 204.755703 213.006782 Q 208.652352 206.748533 207.943863 189.863070 Q 207.235392 174.984967 203.929143 164.003513 Q 195.191200 154.675183 183.147026 145.583006 Q 169.567807 135.191958 160.003324 131.767632 Q 170.984764 122.911619 177.597260 111.339759 Q 181.966222 103.782636 185.272470 92.801177 Q 190.940320 74.971065 185.980956 54.779368 Q 181.611974 37.067344 172.165560 27.502844 Q 150.438816 7.193061 115.959412 2.587943 Q 86.439371 -1.426791 59.162851 6.720752 Q 47.472914 10.617384 37.672262 20.772286 Q 26.690808 31.989902 22.321842 46.986079 Q 18.070956 61.391856 20.550641 76.624208 Q 22.439925 88.668380 28.225853 99.649839 Q 20.904883 107.915451 11.812713 128.343314 Q 4.255583 145.701104 1.067419 157.627199 Q 1.657821 174.984979 7.916070 187.855718 Q 12.639276 197.538292 18.307126 201.553017 Q 27.635457 188.209957 36.845708 164.593924 Q 46.528281 139.915172 47.827160 124.446672 Q 64.712628 139.915171 90.454098 145.464933 Q 113.952053 150.542382 131.664077 145.228774 Q 143.708260 164.357756 168.623165 186.674907 Q 191.176484 206.748534 204.755703 213.006782 Z" transform="scale(1.000000,1.000000) translate(138.000000,223.000000)" fill="#fedd09" opacity="1.000000"></path>
        <path d="M 31.435827 156.624760 Q 54.225293 167.606199 71.819240 171.502847 Q 85.988860 174.572938 109.486814 174.454849 Q 132.630533 174.454848 134.165560 171.502844 Q 140.778056 158.868269 147.390551 135.842637 Q 154.475359 110.809646 157.781588 86.367056 Q 166.165283 23.076081 144.084295 6.544859 Q 127.907316 -5.735470 87.523896 9.260692 Q 69.811872 15.637050 61.428182 17.644392 Q 50.682880 20.124083 39.347186 19.651770 Q 27.893414 19.179458 19.037402 22.249514 Q 11.007947 24.965379 7.465543 29.452411 Q -0.563907 39.843488 1.443458 64.522235 Q 2.978500 83.060816 9.000593 102.189799 L 15.731159 121.318781 L 22.343652 139.148893 Q 23.642532 142.337053 27.657256 149.776107 L 31.435827 156.624760 Z" transform="scale(1.000000,1.000000) translate(176.000000,79.000000)" fill="#fedd09" opacity="1.000000"></path>
        <path d="M 45.435827 55.624760 Q 49.214388 56.923631 51.339834 48.539950 Q 53.583359 39.683937 50.513267 30.119437 Q 47.207027 19.964536 37.878692 10.281967 Q 28.668440 0.599398 23.000593 1.189799 Q 16.742340 1.071712 10.720254 3.079089 Q 5.406647 4.968362 5.170486 6.621495 Q 5.170486 9.101167 7.768250 10.990457 L 3.517367 18.783737 Q 1.391923 23.034630 1.628082 23.743119 Q 2.218483 24.687745 6.233210 24.333519 Q 6.115127 31.300241 11.428735 28.466324 Q 11.664896 34.016089 16.033863 30.001352 Q 19.576268 35.669203 25.480277 41.455142 Q 30.557723 46.532574 35.162851 49.720752 Q 38.941418 53.381226 45.435827 55.624760 Z" transform="scale(1.000000,1.000000) translate(162.000000,180.000000)" fill="#fedd09" opacity="1.000000"></path>
        <path d="M 2.755703 52.006782 Q 15.036034 58.383109 27.906782 62.515914 Q 43.847605 67.593361 46.445364 63.696715 Q 49.751612 58.737348 31.567255 35.121316 Q 14.799874 13.512649 1.102585 1.822711 Q 5.353461 14.929612 5.943863 28.272669 Q 6.534264 42.324208 2.755703 52.006782 Z" transform="scale(1.000000,1.000000) translate(340.000000,384.000000)" fill="#0b0f14" opacity="1.000000"></path>
        <path d="M 6.926958 20.160901 Q 13.185209 25.356420 20.388097 27.599936 Q 27.000588 11.895288 48.845418 9.769858 Q 38.454360 4.574303 24.166662 2.330788 Q 9.760881 0.205360 7.281199 3.511590 Q 2.439912 2.330789 1.613350 4.810480 Q 0.904869 6.817857 2.557993 9.297512 Q -0.866333 13.784580 6.926958 20.160901 Z" transform="scale(1.000000,1.000000) translate(158.000000,89.000000)" fill="#fedd09" opacity="1.000000"></path>
        <path d="M 1.184110 24.113166 Q 10.748592 23.758939 18.659960 27.419431 Q 26.099014 30.843748 29.169105 36.275442 Q 35.309270 26.120541 36.726228 17.028354 Q 38.143185 7.700028 33.892310 5.220338 Q 33.774223 1.796020 30.704149 1.796020 Q 27.988302 1.914108 26.217100 4.039536 Q 24.800141 0.142905 14.881397 7.463855 Q 4.726514 15.021014 1.184110 24.113166 Z" transform="scale(1.000000,1.000000) translate(298.000000,56.000000)" fill="#fedd09" opacity="1.000000"></path>
        <path d="M 1.967052 5.458407 L 9.996498 10.653927 Q 12.358101 12.425129 17.081308 13.842087 L 23.693804 15.022888 L 33.730618 16.085620 Q 33.376374 12.661284 31.132848 9.236967 L 18.144031 8.528480 Q 11.413465 6.048807 9.760340 1.089426 L 1.967052 5.458407 Z" transform="scale(1.000000,1.000000) translate(222.000000,265.000000)" fill="#a30008" opacity="1.000000"></path>
        <path d="M 1.642262 3.207514 Q 4.003865 7.812633 10.262109 10.410410 Q 17.110762 13.244327 23.369014 11.118880 Q 13.686435 -1.633781 1.642262 3.207514 Z" transform="scale(1.000000,1.000000) translate(230.000000,263.000000)" fill="#db0010" opacity="1.000000"></path>
        <path d="M 2.406647 8.274610 Q 4.295928 6.857651 10.908419 6.739564 L 21.771795 7.920365 L 20.118671 1.425956 Q 13.624262 1.189799 7.247932 3.433316 Q 0.517366 5.794919 2.406647 8.274610 Z" transform="scale(1.000000,1.000000) translate(165.000000,180.000000)" fill="#f6b208" opacity="1.000000"></path>
        <path d="M 1.845148 3.990166 Q 1.727069 5.643299 9.992681 6.942170 L 18.494449 6.469856 Q 18.612527 5.052898 15.306288 3.517852 L 10.110759 1.982807 L 5.033308 2.218964 Q 1.845148 2.809365 1.845148 3.990166 Z" transform="scale(1.000000,1.000000) translate(237.000000,219.000000)" fill="#f6b208" opacity="1.000000"></path>
        <path d="M 1.443458 57.673563 Q 5.694340 26.146181 36.159026 28.625870 Q 51.509447 29.924722 65.797145 26.500404 Q 78.077483 23.548399 95.435263 15.518961 Q 115.036568 6.308686 134.165551 13.393495 Q 158.608160 22.367593 160.851678 56.610840 Q 160.615519 29.806665 153.766866 17.290160 Q 142.785406 -3.137729 113.029209 2.293968 Q 103.110482 4.065171 75.715880 13.157359 Q 53.280649 20.596396 46.313918 19.769857 Q 24.351009 17.172081 12.306832 26.028094 Q -1.036225 35.828733 1.443458 57.673563 Z" transform="scale(1.000000,1.000000) translate(176.000000,79.000000)" fill="#f6b208" opacity="1.000000"></path>
        <path d="M 1.941684 20.640591 Q 2.532085 21.467131 6.901052 23.120281 L 12.214659 25.009535 Q 14.576262 18.160900 23.904596 12.847292 Q 32.406364 8.005997 39.727340 8.005997 Q 32.288286 3.991279 23.078034 1.983902 Q 12.096580 18.397075 1.941684 20.640591 Z" transform="scale(1.000000,1.000000) translate(167.000000,91.000000)" fill="#f6b208" opacity="1.000000"></path>
        <path d="M 9.158191 1.478609 L 4.316915 7.382618 Q 1.955312 10.925023 1.010667 14.113165 Q 18.250360 12.341962 27.932949 26.157355 Q 31.829579 20.135259 32.656155 17.419430 Q 24.744769 16.947081 18.132291 12.578137 Q 11.401725 8.209157 9.158191 1.478609 Z" transform="scale(1.000000,1.000000) translate(299.000000,66.000000)" fill="#f6b208" opacity="1.000000"></path>
        <path d="M 12.653719 32.236693 Q 18.203488 33.771730 23.280934 30.347412 Q 28.240302 26.923076 30.011504 20.428667 Q 31.900784 14.170433 28.948780 9.092982 Q 26.232937 4.369776 20.565090 2.598574 Q 14.897243 0.945441 9.347474 3.779376 Q 3.915789 6.613293 2.380743 12.163057 Q 0.491463 18.657466 3.325389 24.443405 Q 6.159310 30.465491 12.653719 32.236693 Z" transform="scale(1.000000,1.000000) translate(174.000000,274.000000)" fill="#0b0f14" opacity="1.000000"></path>
        <path d="M 5.945240 14.583569 L 11.258848 14.347412 Q 13.738529 13.166610 14.683169 10.686920 Q 15.627814 7.971072 14.683169 5.491400 Q 13.620450 2.893640 10.786524 1.830908 L 5.472917 2.067065 Q 2.993235 3.247867 2.166674 5.963714 Q 1.340112 8.797649 2.520913 11.277321 Q 3.583637 13.757012 5.945240 14.583569 Z" transform="scale(1.000000,1.000000) translate(180.000000,290.000000)" fill="#fffefe" opacity="1.000000"></path>
        <path d="M 12.199120 33.922803 Q 18.811608 36.048250 25.069860 32.505844 Q 31.564269 28.963439 32.981227 21.760542 Q 34.280115 15.738455 31.210024 10.188691 Q 28.258019 4.638918 22.708255 2.749647 Q 16.213846 0.506113 10.309838 3.576205 Q 4.641987 6.528210 2.634628 12.432218 Q 0.273025 19.753184 3.343108 26.011437 Q 6.177034 32.033523 12.199120 33.922803 Z" transform="scale(1.000000,1.000000) translate(259.000000,299.000000)" fill="#0b0f14" opacity="1.000000"></path>
        <path d="M 5.372554 15.151601 Q 7.970323 16.332402 10.686161 15.151601 Q 13.402008 14.088877 14.464723 11.373039 Q 15.409367 8.893348 14.464722 6.177510 Q 13.520095 3.225506 10.804248 2.280861 Q 7.970322 1.218138 5.490640 2.280861 Q 2.892871 3.343585 1.830148 5.941345 Q 0.767434 8.539114 1.712070 11.254952 Q 2.656715 13.970799 5.372554 15.151601 Z" transform="scale(1.000000,1.000000) translate(265.000000,316.000000)" fill="#fffefe" opacity="1.000000"></path>
        <path d="M 1.933784 2.698100 Q 1.815697 3.170431 4.413466 3.878901 L 7.011226 4.351232 L 6.302746 2.816187 L 4.767701 1.753455 L 3.114586 1.871542 L 1.933784 2.698100 Z" transform="scale(1.000000,1.000000) translate(229.000000,285.000000)" fill="#0b0f14" opacity="1.000000"></path>
        <path d="M 24.700609 40.638917 Q 29.187659 38.867714 30.604617 31.310591 Q 32.139662 23.753450 29.423814 16.550571 Q 26.471810 8.403029 20.213557 4.388311 Q 13.955323 0.373593 8.641716 2.971353 Q 3.328109 5.451026 1.674976 12.535836 Q -0.096226 19.974890 3.446179 27.650100 Q 7.224741 35.797642 13.482994 39.458116 Q 19.387002 42.764364 24.700609 40.638917 Z" transform="scale(1.000000,1.000000) translate(287.000000,263.000000)" fill="#db0010" opacity="1.000000"></path>
        <path d="M 23.535638 24.768462 Q 28.731162 18.155984 30.502365 11.661575 Q 32.273567 4.812921 28.967323 2.451318 Q 25.779157 0.207785 19.875149 3.750190 Q 14.797703 6.702194 9.011779 13.078534 Q 3.934328 18.864455 1.926967 25.004620 Q -0.080394 31.262873 2.517371 33.860632 Q 5.705532 36.812636 12.199941 33.978719 Q 18.458193 31.262872 23.535638 24.768462 Z" transform="scale(1.000000,1.000000) translate(163.000000,234.000000)" fill="#db0010" opacity="1.000000"></path>
        <path d="M 13.421664 130.940252 Q 27.591281 117.479113 40.934337 91.383395 Q 56.757079 60.328312 61.007962 29.391308 L 58.646358 27.265870 Q 53.805075 58.320948 37.155774 90.438754 Q 24.521199 114.999430 11.768541 129.050970 Q 8.108057 132.829536 6.454934 132.711455 Q 4.329491 132.475295 4.211411 126.453207 Q 3.621009 105.907258 12.595099 71.191690 Q 23.458471 29.155153 40.698176 4.948719 L 39.517374 1.996715 Q 20.742628 26.203149 9.406934 68.003525 Q -0.511797 104.726457 1.495567 126.807447 Q 2.085968 134.600738 5.156052 135.427299 Q 7.989976 136.135780 13.421664 130.940252 Z" transform="scale(1.000000,1.000000) translate(126.000000,319.000000)" fill="#0b0f14" opacity="1.000000"></path>
        <path d="M 3.484381 1.383674 L 1.004698 7.405760 Q 2.067420 21.693463 6.672547 32.556838 Q 11.159595 43.302131 18.480564 48.969978 L 20.251766 46.490296 Q 12.576555 40.468208 8.207589 28.187871 Q 3.956703 16.379855 3.484381 1.383674 Z" transform="scale(1.000000,1.000000) translate(137.000000,377.000000)" fill="#0b0f14" opacity="1.000000"></path>
        <path d="M 81.187396 43.032963 Q 105.511900 68.420199 116.257203 87.194944 Q 119.681521 93.098951 118.382650 94.870154 L 109.526638 95.106315 Q 88.862609 91.091591 63.121129 74.088048 Q 28.877880 51.534738 3.962957 15.874530 L 1.247118 16.701097 Q 27.460922 55.313305 61.113770 77.394294 Q 86.264831 93.925514 108.818150 97.704079 Q 118.973051 99.475280 120.980410 96.405196 Q 122.751612 93.571272 118.736876 85.896061 Q 107.519259 64.877794 82.840511 39.608641 Q 54.973583 11.151320 32.302195 1.704909 L 29.822523 3.476111 Q 52.139667 12.922523 81.187396 43.032963 Z" transform="scale(1.000000,1.000000) translate(267.000000,352.000000)" fill="#0b0f14" opacity="1.000000"></path>
        <path d="M 5.582258 5.420476 L 1.213296 1.759993 Q 6.526904 18.409294 6.644992 33.877795 Q 6.644993 46.748533 3.811058 51.589820 L 6.172662 53.242942 Q 9.242753 47.929334 9.715066 36.121318 Q 10.187396 21.479376 5.582258 5.420476 Z" transform="scale(1.000000,1.000000) translate(338.000000,383.000000)" fill="#0b0f14" opacity="1.000000"></path>
        <path d="M 141.124941 159.333224 Q 140.298365 162.049071 141.124941 162.403315 Q 142.069568 162.757559 143.014213 160.041712 Q 163.678238 102.772832 163.442079 57.548126 Q 163.087832 11.851088 141.243001 3.349339 Q 129.316915 -1.255779 107.117841 3.703567 Q 93.656701 6.655572 71.811871 14.685046 Q 62.719694 17.991277 57.878409 19.053991 L 43.236467 20.116707 L 24.697885 21.297509 Q 14.070670 23.659113 7.222022 31.334324 Q -1.515911 40.898825 2.853058 72.544330 Q 7.222027 104.898287 22.808611 139.613847 Q 23.871330 141.975450 24.815970 141.621206 Q 25.642532 141.266962 24.579813 138.905359 Q 10.292109 103.953642 6.159301 73.134731 Q 2.262655 42.906202 10.292105 33.932102 Q 16.786513 26.611117 25.996765 24.485688 L 43.236467 23.186798 L 59.295376 22.124083 Q 64.136661 21.179456 72.874595 17.755102 Q 120.224728 -0.193064 139.707956 7.245970 Q 159.663514 14.803092 159.309273 59.555503 Q 159.073119 102.064344 141.124941 159.333224 Z" transform="scale(1.000000,1.000000) translate(174.000000,77.000000)" fill="#0b0f14" opacity="1.000000"></path>
        <path d="M 22.273566 26.311153 L 25.697893 25.248421 Q 13.417553 16.746653 4.089222 3.049348 Q 2.790338 1.041989 2.081859 1.396233 Q 1.373379 1.868546 2.672259 3.875924 Q 11.174033 18.399769 22.273566 26.311153 Z" transform="scale(1.000000,1.000000) translate(173.000000,204.000000)" fill="#0b0f14" opacity="1.000000"></path>
        <path d="M 2.638717 3.159519 Q 1.575994 3.868007 2.048316 4.458408 L 3.701440 4.576477 Q 8.070403 2.923362 16.808337 9.181613 Q 21.885788 12.842087 25.664349 14.022889 Q 29.442911 15.321777 36.409642 15.557934 L 44.321019 16.738735 Q 47.509180 17.919536 48.335737 20.753453 Q 48.926138 22.170429 49.634626 21.934255 Q 50.343106 21.816185 50.106940 20.281139 Q 48.689981 13.078242 36.409642 12.605930 L 26.490907 11.188972 Q 22.948502 10.008171 18.343382 6.701923 Q 8.188481 -0.619043 2.638717 3.159519 Z" transform="scale(1.000000,1.000000) translate(212.000000,266.000000)" fill="#0b0f14" opacity="1.000000"></path>
        <path d="M 4.265932 8.403034 Q 13.712344 1.082067 21.741799 3.916001 Q 25.992683 5.451029 29.180844 9.347677 Q 32.369014 13.244326 33.549816 18.085620 L 36.737977 18.676021 Q 35.911419 13.126239 31.778613 8.403032 Q 27.881964 3.916001 22.568357 1.908624 L 12.413464 1.318224 Q 6.863691 2.499026 1.668172 6.631832 L 4.265932 8.403034 Z" transform="scale(1.000000,1.000000) translate(221.000000,263.000000)" fill="#0b0f14" opacity="1.000000"></path>
        <path d="M 4.557994 11.445072 Q 9.989680 18.529881 22.151936 23.016912 L 23.214659 20.182995 Q 12.823605 16.050190 7.746157 10.854671 Q 3.377192 6.249516 5.148394 4.006000 L 3.377191 1.526309 Q -0.401375 4.950663 4.557994 11.445072 Z" transform="scale(1.000000,1.000000) translate(156.000000,95.000000)" fill="#0b0f14" opacity="1.000000"></path>
        <path d="M 13.886324 17.799297 Q 15.539448 18.625873 15.893687 17.799297 Q 16.366010 17.090809 14.712886 16.146182 Q 10.698163 13.784579 7.746156 10.478313 Q 4.557993 7.053996 5.266472 5.282793 L 9.281199 4.928567 L 10.343918 2.330789 L 5.502633 1.858476 Q 2.668710 2.212702 2.078309 3.865853 Q 0.897508 7.053996 5.266472 11.659115 Q 9.163117 15.791920 13.886324 17.799297 Z" transform="scale(1.000000,1.000000) translate(156.000000,89.000000)" fill="#0b0f14" opacity="1.000000"></path>
        <path d="M 43.074216 12.124084 L 47.915500 11.415596 Q 34.808604 4.921188 18.513537 2.677673 Q 2.454637 0.552245 1.155755 4.921190 Q 0.447274 7.164706 4.107762 10.589059 Q 8.004406 14.367602 13.199931 15.666491 Q 14.853055 16.020717 15.089216 15.312265 Q 15.325377 14.485689 13.790332 13.895289 Q 9.893687 12.360261 7.059766 9.998658 Q 4.343918 7.637055 4.698162 6.220079 Q 5.170480 4.212701 16.506178 5.275451 Q 29.731153 6.574303 43.074216 12.124084 Z" transform="scale(1.000000,1.000000) translate(162.000000,87.000000)" fill="#0b0f14" opacity="1.000000"></path>
        <path d="M 1.530977 24.231253 L 4.955312 24.467428 Q 8.143473 15.847554 16.763328 9.117006 Q 24.438538 3.094910 26.682054 4.393799 Q 27.744768 5.102251 26.327810 8.998918 Q 25.028939 12.895549 22.195005 17.500668 Q 21.368447 18.681470 22.076936 19.153819 Q 22.667336 19.508045 23.611963 18.445331 Q 27.272455 14.076350 28.807501 8.526604 Q 30.342546 2.740647 28.099012 1.559846 Q 24.674694 -0.211357 15.464438 6.637315 Q 5.191468 14.312526 1.530977 24.231253 Z" transform="scale(1.000000,1.000000) translate(296.000000,56.000000)" fill="#0b0f14" opacity="1.000000"></path>
        <path d="M 4.932948 20.980358 Q 4.224460 22.633473 5.051017 22.987735 Q 5.759505 23.341961 6.586063 21.806934 Q 10.718868 14.013635 10.955025 7.991540 Q 11.073112 2.796020 8.475352 1.733306 L 5.287173 1.615219 Q 3.161744 2.087532 1.508611 3.858735 L 2.689413 6.456513 Q 5.641417 3.504508 7.412619 4.331048 Q 8.829578 5.039536 8.357265 9.290429 Q 7.766864 14.013636 4.932948 20.980358 Z" transform="scale(1.000000,1.000000) translate(322.000000,55.000000)" fill="#0b0f14" opacity="1.000000"></path>
        <path d="M 1.988304 34.094641 L 4.113750 36.692383 Q 10.608159 25.947080 12.025117 15.674128 Q 13.442074 4.456512 7.419979 1.858734 L 7.774223 5.165000 Q 10.726227 7.998917 8.955025 16.736842 Q 7.183823 25.238628 1.988304 34.094641 Z" transform="scale(1.000000,1.000000) translate(324.000000,57.000000)" fill="#0b0f14" opacity="1.000000"></path>
        <path d="M 24.605171 11.417769 L 23.542448 9.292322 Q 18.346919 10.945438 12.088675 8.583835 Q 5.830423 6.222232 3.823064 1.853269 L 1.461460 2.561758 Q 3.941142 7.875365 10.789795 10.591212 Q 17.638440 13.307041 24.605171 11.417769 Z" transform="scale(1.000000,1.000000) translate(229.000000,264.000000)" fill="#0b0f14" opacity="1.000000"></path>
        <path d="M 14.823618 104.026160 Q 16.122498 105.915450 16.949060 105.443128 Q 17.775622 104.852727 16.594820 102.963446 Q 8.565367 89.266140 6.439924 74.624207 Q 4.314479 59.864187 8.329206 45.340323 Q 12.698172 29.517588 24.033865 18.654198 Q 35.251480 8.026983 51.782702 3.421863 Q 54.970863 2.477218 54.734706 1.650660 L 51.310380 1.296416 Q 34.306839 4.602666 21.436100 16.292595 Q 8.565364 27.982543 4.078319 44.277609 Q -0.054486 59.155699 2.779439 74.978452 Q 5.613363 90.919265 14.823618 104.026160 Z" transform="scale(1.000000,1.000000) translate(154.000000,225.000000)" fill="#0b0f14" opacity="1.000000"></path>
        <path d="M 67.166123 30.889259 Q 83.106945 31.361580 95.741527 26.638373 Q 97.866965 25.811806 97.630808 24.985249 L 95.151126 24.749092 Q 67.756524 32.306217 37.055681 21.679004 Q 17.572458 15.066518 4.229400 2.550023 Q 2.576275 1.014978 1.985875 1.605378 Q 1.277396 2.313867 2.812437 3.966982 Q 15.328933 18.136600 35.874879 25.221409 Q 51.579545 30.535015 67.166123 30.889259 Z" transform="scale(1.000000,1.000000) translate(179.000000,341.000000)" fill="#0b0f14" opacity="1.000000"></path>
        <path d="M 33.744783 73.587106 Q 39.530721 57.173962 37.051029 37.690735 Q 34.217111 15.609748 21.464449 2.266687 Q 19.929404 0.613572 19.339003 1.203973 Q 18.630533 1.794374 19.929404 3.565576 Q 31.028951 18.089421 33.390555 38.517293 Q 35.515985 56.937805 29.966222 72.406305 Q 21.818699 95.668094 3.043943 108.893079 Q 1.036584 110.310037 1.626985 111.018516 Q 2.099316 111.726996 4.224745 110.546194 Q 14.143489 104.760272 21.936768 95.077693 Q 29.611978 85.395123 33.744783 73.587106 Z" transform="scale(1.000000,1.000000) translate(290.000000,248.000000)" fill="#0b0f14" opacity="1.000000"></path>
        <path d="M 17.388103 32.064084 L 15.971140 30.292882 Q 14.554181 31.355596 13.963780 31.119439 L 13.491458 29.702481 L 12.782979 28.167435 L 11.011776 28.639749 L 9.240574 28.993993 Q 8.414012 28.639749 8.295929 26.632390 L 7.823611 24.388874 L 5.698169 24.388874 L 3.926964 24.034630 Q 3.454644 23.326142 6.642809 17.776378 L 9.949052 11.990457 L 8.650172 10.337324 Q 7.233209 8.920366 7.351287 7.975721 Q 7.587448 6.558762 14.081857 5.023716 L 24.236749 3.961001 L 23.646348 1.127085 Q 18.568902 0.654754 11.720254 3.016357 Q 4.871605 5.259891 4.399283 7.503407 Q 4.045044 9.628854 7.233209 12.108526 Q 0.502640 23.326142 1.329202 25.333519 Q 1.683441 26.160077 3.454644 26.396234 L 6.406648 26.160077 Q 6.170487 27.695122 6.642809 29.230150 Q 6.997049 30.765196 7.823611 31.237527 L 9.594814 31.473684 Q 10.775615 31.237527 11.602177 30.647126 Q 11.838334 33.362955 13.255297 33.717199 L 15.262661 33.362955 L 17.388103 32.064084 Z" transform="scale(1.000000,1.000000) translate(161.000000,179.000000)" fill="#0b0f14" opacity="1.000000"></path>
        <path d="M 70.368187 24.691289 Q 57.969769 8.986624 40.021570 2.728373 Q 27.623152 -1.522501 12.272732 13.001345 Q -3.195758 27.643297 4.243297 38.034355 Q 11.800421 48.543482 24.789239 58.816451 Q 39.903504 70.860624 53.246567 74.521115 Q 58.087843 82.196325 59.504801 82.550569 L 62.929137 81.842081 Q 65.408809 80.661279 67.298099 77.709275 Q 73.556351 76.882717 77.807226 71.923354 Q 82.294275 66.845903 82.648519 59.406849 Q 83.357006 41.222511 70.368187 24.691289 Z" transform="scale(1.000000,1.000000) translate(279.000000,197.000000)" fill="#fedd09" opacity="1.000000"></path>
        <path d="M 43.349630 63.547014 Q 49.962126 45.716920 34.139390 24.462491 Q 19.261281 4.270777 1.903500 1.909175 Q 17.962392 9.348228 31.187386 29.185698 Q 44.294274 48.905081 43.349630 63.547014 Z" transform="scale(1.000000,1.000000) translate(317.000000,199.000000)" fill="#f6b208" opacity="1.000000"></path>
        <path d="M 61.755694 81.550569 Q 64.353454 80.369767 66.124657 77.535833 Q 81.002764 75.764629 82.419721 56.871803 Q 83.600522 41.049068 71.910592 24.872090 Q 59.157930 7.514311 38.966215 1.137972 L 36.486542 1.374129 Q 36.132298 2.318774 38.257745 3.145331 Q 56.560170 10.112071 68.604344 26.289049 Q 80.294274 41.993713 79.349630 56.517577 Q 78.168829 72.340312 66.124656 75.174229 Q 64.589611 75.292317 64.117297 76.355031 Q 63.290740 77.890077 61.165293 78.834722 L 57.504801 79.425123 Q 56.442087 79.070879 54.670884 76.118875 Q 52.899682 72.930714 51.836967 72.576470 Q 38.021574 67.144794 27.512446 59.705741 Q 15.232116 50.967799 3.896412 37.388581 Q 2.479453 35.735466 1.652896 36.325867 Q 0.944408 36.916267 2.243297 38.805557 Q 14.641715 54.864448 28.339004 64.074703 Q 38.139661 70.687199 50.183834 74.583829 L 53.135839 78.362409 Q 55.261285 81.786726 57.032488 82.140970 Q 59.276004 82.731371 61.755694 81.550569 Z" transform="scale(1.000000,1.000000) translate(281.000000,198.000000)" fill="#0b0f14" opacity="1.000000"></path>
        <path d="M 4.039847 33.583829 L 6.165293 33.938073 Q 6.755694 33.583829 5.574892 32.284958 Q 4.276003 30.749912 4.276003 30.277599 Q 4.276003 29.451023 4.984491 28.388309 L 5.692979 26.971350 L 4.748334 25.672461 Q 3.803689 24.609747 3.803689 23.310858 Q 3.803689 21.775813 4.748334 20.358854 L 5.692979 18.587652 L 5.102578 17.170693 Q 4.394090 15.989892 4.512177 15.045247 Q 4.630246 14.100602 5.929135 12.683643 L 7.346093 10.912441 L 6.755692 9.141239 Q 6.283379 7.724280 6.519536 6.543479 L 8.408807 4.890363 L 11.596986 3.827631 Q 13.132014 3.709561 13.132014 2.882986 L 11.833143 1.938359 L 7.464180 2.646830 Q 4.866402 3.709562 4.276002 5.480764 Q 3.921776 6.425391 4.157932 7.960437 Q 4.394089 9.613570 5.220647 10.558197 L 3.213288 12.211330 Q 2.268643 13.392132 2.150574 14.572934 Q 1.678242 16.698380 3.803689 18.587652 Q 1.560173 20.476942 1.205929 22.956614 Q 0.969773 25.554392 3.567533 27.325595 Q 2.032487 28.506396 2.032487 30.513756 Q 1.914400 31.340313 2.622888 32.284958 L 4.039847 33.583829 Z" transform="scale(1.000000,1.000000) translate(336.000000,239.000000)" fill="#0b0f14" opacity="1.000000"></path>
        <path d="M 14.823618 104.026160 Q 16.122498 105.915450 16.949060 105.443128 Q 17.775622 104.852727 16.594820 102.963446 Q 8.565367 89.266140 6.439924 74.624207 Q 4.314479 59.864187 8.329206 45.340323 Q 12.698172 29.517588 24.033865 18.654198 Q 35.251480 8.026983 51.782702 3.421863 Q 54.970863 2.477218 54.734706 1.650660 L 51.310380 1.296416 Q 34.306839 4.602666 21.436100 16.292595 Q 8.565364 27.982543 4.078319 44.277609 Q -0.054486 59.155699 2.779439 74.978452 Q 5.613363 90.919265 14.823618 104.026160 Z" transform="scale(1.000000,1.000000) translate(154.000000,225.000000)" fill="#0b0f14" opacity="1.000000"></path>
        <path d="M 1.244475 48.074520 L 305.775664 103.472122 L 314.334801 56.420918 L 9.803612 1.023315 Z" transform="scale(1.000000,1.000000) translate(81.000000,257.000000)" opacity="0.973703"></path>
    </g>
</svg>